<svg width="92" height="92" viewBox="0 0 92 92" fill="none" xmlns="http://www.w3.org/2000/svg">
<circle cx="46" cy="46" r="44.5" fill="#D9D9D9" stroke="black"/>
<line x1="46.5" y1="0.822571" x2="46.5" y2="91.1774" stroke="black"/>
<line x1="91.1774" y1="46.5" x2="0.822571" y2="46.5" stroke="black"/>
<line x1="15.8234" y1="78.6997" x2="77.4453" y2="12.6183" stroke="black"/>
<path d="M53.8352 69.4545V70.3068H50.3068V69.4545H53.8352ZM51.3636 76V68.5511C51.3636 68.1761 51.4517 67.8636 51.6278 67.6136C51.804 67.3636 52.0327 67.1761 52.3139 67.0511C52.5952 66.9261 52.892 66.8636 53.2045 66.8636C53.4517 66.8636 53.6534 66.8835 53.8097 66.9233C53.9659 66.9631 54.0824 67 54.1591 67.0341L53.8693 67.9034C53.8182 67.8864 53.7472 67.8651 53.6562 67.8395C53.5682 67.8139 53.4517 67.8011 53.3068 67.8011C52.9744 67.8011 52.7344 67.8849 52.5866 68.0526C52.4418 68.2202 52.3693 68.4659 52.3693 68.7898V76H51.3636ZM55.2447 76V69.4545H56.2504V76H55.2447ZM55.756 68.3636C55.56 68.3636 55.391 68.2969 55.2489 68.1634C55.1097 68.0298 55.0401 67.8693 55.0401 67.6818C55.0401 67.4943 55.1097 67.3338 55.2489 67.2003C55.391 67.0668 55.56 67 55.756 67C55.9521 67 56.1197 67.0668 56.2589 67.2003C56.4009 67.3338 56.4719 67.4943 56.4719 67.6818C56.4719 67.8693 56.4009 68.0298 56.2589 68.1634C56.1197 68.2969 55.9521 68.3636 55.756 68.3636Z" fill="black"/>
<path d="M34.2727 72.4545L31.8523 79H30.8295L28.4091 72.4545H29.5L31.3068 77.6705H31.375L33.1818 72.4545H34.2727ZM38.1101 79.1364C37.4794 79.1364 36.9354 78.9972 36.478 78.7188C36.0234 78.4375 35.6726 78.0455 35.4254 77.5426C35.1811 77.0369 35.0589 76.4489 35.0589 75.7784C35.0589 75.108 35.1811 74.517 35.4254 74.0057C35.6726 73.4915 36.0163 73.0909 36.4567 72.804C36.8999 72.5142 37.4169 72.3693 38.0078 72.3693C38.3487 72.3693 38.6854 72.4261 39.0178 72.5398C39.3501 72.6534 39.6527 72.8381 39.9254 73.0938C40.1982 73.3466 40.4155 73.6818 40.5774 74.0994C40.7393 74.517 40.8203 75.0312 40.8203 75.642V76.0682H35.7749V75.1989H39.7976C39.7976 74.8295 39.7237 74.5 39.576 74.2102C39.4311 73.9205 39.2237 73.6918 38.9538 73.5241C38.6868 73.3565 38.3714 73.2727 38.0078 73.2727C37.6072 73.2727 37.2607 73.3722 36.968 73.571C36.6783 73.767 36.4553 74.0227 36.299 74.3381C36.1428 74.6534 36.0646 74.9915 36.0646 75.3523V75.9318C36.0646 76.4261 36.1499 76.8452 36.3203 77.1889C36.4936 77.5298 36.7337 77.7898 37.0405 77.9688C37.3473 78.1449 37.7038 78.233 38.1101 78.233C38.3743 78.233 38.6129 78.196 38.826 78.1222C39.0419 78.0455 39.228 77.9318 39.3842 77.7812C39.5405 77.6278 39.6612 77.4375 39.7464 77.2102L40.718 77.483C40.6158 77.8125 40.4439 78.1023 40.2024 78.3523C39.9609 78.5994 39.6626 78.7926 39.3075 78.9318C38.9524 79.0682 38.5533 79.1364 38.1101 79.1364Z" fill="black"/>
<path d="M71.9261 30.2727V39H70.9205V30.2727H71.9261ZM76.5124 39.1364C75.8817 39.1364 75.3377 38.9972 74.8803 38.7188C74.4258 38.4375 74.0749 38.0455 73.8278 37.5426C73.5835 37.0369 73.4613 36.4489 73.4613 35.7784C73.4613 35.108 73.5835 34.517 73.8278 34.0057C74.0749 33.4915 74.4187 33.0909 74.859 32.804C75.3022 32.5142 75.8192 32.3693 76.4102 32.3693C76.7511 32.3693 77.0877 32.4261 77.4201 32.5398C77.7525 32.6534 78.055 32.8381 78.3278 33.0938C78.6005 33.3466 78.8178 33.6818 78.9798 34.0994C79.1417 34.517 79.2227 35.0312 79.2227 35.642V36.0682H74.1772V35.1989H78.1999C78.1999 34.8295 78.1261 34.5 77.9783 34.2102C77.8335 33.9205 77.6261 33.6918 77.3562 33.5241C77.0891 33.3565 76.7738 33.2727 76.4102 33.2727C76.0096 33.2727 75.663 33.3722 75.3704 33.571C75.0806 33.767 74.8576 34.0227 74.7013 34.3381C74.5451 34.6534 74.467 34.9915 74.467 35.3523V35.9318C74.467 36.4261 74.5522 36.8452 74.7227 37.1889C74.896 37.5298 75.136 37.7898 75.4428 37.9688C75.7496 38.1449 76.1062 38.233 76.5124 38.233C76.7766 38.233 77.0153 38.196 77.2283 38.1222C77.4442 38.0455 77.6303 37.9318 77.7866 37.7812C77.9428 37.6278 78.0636 37.4375 78.1488 37.2102L79.1204 37.483C79.0181 37.8125 78.8462 38.1023 78.6048 38.3523C78.3633 38.5994 78.065 38.7926 77.7099 38.9318C77.3548 39.0682 76.9556 39.1364 76.5124 39.1364Z" fill="black"/>
<path d="M56.767 13.4545V14.3068H53.375V13.4545H56.767ZM54.3636 11.8864H55.3693V18.125C55.3693 18.4091 55.4105 18.6222 55.4929 18.7642C55.5781 18.9034 55.6861 18.9972 55.8168 19.0455C55.9503 19.0909 56.0909 19.1136 56.2386 19.1136C56.3494 19.1136 56.4403 19.108 56.5114 19.0966C56.5824 19.0824 56.6392 19.071 56.6818 19.0625L56.8864 19.9659C56.8182 19.9915 56.723 20.017 56.6009 20.0426C56.4787 20.071 56.3239 20.0852 56.1364 20.0852C55.8523 20.0852 55.5739 20.0241 55.3011 19.902C55.0313 19.7798 54.8068 19.5938 54.6278 19.3438C54.4517 19.0938 54.3636 18.7784 54.3636 18.3977V11.8864ZM60.9538 20.1364C60.3232 20.1364 59.7791 19.9972 59.3217 19.7188C58.8672 19.4375 58.5163 19.0455 58.2692 18.5426C58.0249 18.0369 57.9027 17.4489 57.9027 16.7784C57.9027 16.108 58.0249 15.517 58.2692 15.0057C58.5163 14.4915 58.8601 14.0909 59.3004 13.804C59.7436 13.5142 60.2607 13.3693 60.8516 13.3693C61.1925 13.3693 61.5291 13.4261 61.8615 13.5398C62.1939 13.6534 62.4964 13.8381 62.7692 14.0938C63.0419 14.3466 63.2592 14.6818 63.4212 15.0994C63.5831 15.517 63.6641 16.0312 63.6641 16.642V17.0682H58.6186V16.1989H62.6413C62.6413 15.8295 62.5675 15.5 62.4197 15.2102C62.2749 14.9205 62.0675 14.6918 61.7976 14.5241C61.5305 14.3565 61.2152 14.2727 60.8516 14.2727C60.451 14.2727 60.1044 14.3722 59.8118 14.571C59.522 14.767 59.299 15.0227 59.1428 15.3381C58.9865 15.6534 58.9084 15.9915 58.9084 16.3523V16.9318C58.9084 17.4261 58.9936 17.8452 59.1641 18.1889C59.3374 18.5298 59.5774 18.7898 59.8842 18.9688C60.1911 19.1449 60.5476 19.233 60.9538 19.233C61.218 19.233 61.4567 19.196 61.6697 19.1222C61.8857 19.0455 62.0717 18.9318 62.228 18.7812C62.3842 18.6278 62.505 18.4375 62.5902 18.2102L63.5618 18.483C63.4595 18.8125 63.2876 19.1023 63.0462 19.3523C62.8047 19.5994 62.5064 19.7926 62.1513 19.9318C61.7962 20.0682 61.397 20.1364 60.9538 20.1364Z" fill="black"/>
<path d="M13.8352 28.4545V29.3068H10.3068V28.4545H13.8352ZM11.3636 35V27.5511C11.3636 27.1761 11.4517 26.8636 11.6278 26.6136C11.804 26.3636 12.0327 26.1761 12.3139 26.0511C12.5952 25.9261 12.892 25.8636 13.2045 25.8636C13.4517 25.8636 13.6534 25.8835 13.8097 25.9233C13.9659 25.9631 14.0824 26 14.1591 26.0341L13.8693 26.9034C13.8182 26.8864 13.7472 26.8651 13.6562 26.8395C13.5682 26.8139 13.4517 26.8011 13.3068 26.8011C12.9744 26.8011 12.7344 26.8849 12.5866 27.0526C12.4418 27.2202 12.3693 27.4659 12.3693 27.7898V35H11.3636ZM15.2447 35V28.4545H16.2163V29.4432H16.2844C16.4038 29.1193 16.6197 28.8565 16.9322 28.6548C17.2447 28.4531 17.5969 28.3523 17.989 28.3523C18.0629 28.3523 18.1552 28.3537 18.266 28.3565C18.3768 28.3594 18.4606 28.3636 18.5174 28.3693V29.392C18.4833 29.3835 18.4052 29.3707 18.283 29.3537C18.1637 29.3338 18.0373 29.3239 17.9038 29.3239C17.5856 29.3239 17.3015 29.3906 17.0515 29.5241C16.8043 29.6548 16.6083 29.8366 16.4634 30.0696C16.3214 30.2997 16.2504 30.5625 16.2504 30.858V35H15.2447Z" fill="black"/>
<path d="M10.5568 52.9205L9.65341 53.1761C9.59659 53.0256 9.51278 52.8793 9.40199 52.7372C9.29403 52.5923 9.14631 52.473 8.95881 52.3793C8.77131 52.2855 8.53125 52.2386 8.23864 52.2386C7.83807 52.2386 7.50426 52.331 7.23722 52.5156C6.97301 52.6974 6.84091 52.929 6.84091 53.2102C6.84091 53.4602 6.93182 53.6577 7.11364 53.8026C7.29545 53.9474 7.57955 54.0682 7.96591 54.1648L8.9375 54.4034C9.52273 54.5455 9.95881 54.7628 10.2457 55.0554C10.5327 55.3452 10.6761 55.7187 10.6761 56.1761C10.6761 56.5511 10.5682 56.8864 10.3523 57.1818C10.1392 57.4773 9.84091 57.7102 9.45739 57.8807C9.07386 58.0511 8.62784 58.1364 8.11932 58.1364C7.4517 58.1364 6.89915 57.9915 6.46165 57.7017C6.02415 57.4119 5.74716 56.9886 5.63068 56.4318L6.58523 56.1932C6.67614 56.5455 6.84801 56.8097 7.10085 56.9858C7.35653 57.1619 7.69034 57.25 8.10227 57.25C8.57102 57.25 8.94318 57.1506 9.21875 56.9517C9.49716 56.75 9.63636 56.5085 9.63636 56.2273C9.63636 56 9.55682 55.8097 9.39773 55.6562C9.23864 55.5 8.99432 55.3835 8.66477 55.3068L7.57386 55.0511C6.97443 54.9091 6.53409 54.6889 6.25284 54.3906C5.97443 54.0895 5.83523 53.7131 5.83523 53.2614C5.83523 52.892 5.93892 52.5653 6.14631 52.2812C6.35653 51.9972 6.64205 51.7741 7.00284 51.6122C7.36648 51.4503 7.77841 51.3693 8.23864 51.3693C8.88636 51.3693 9.39489 51.5114 9.7642 51.7955C10.1364 52.0795 10.4006 52.4545 10.5568 52.9205ZM12.19 60.4545V51.4545H13.1616V52.4943H13.2809C13.3548 52.3807 13.457 52.2358 13.5877 52.0597C13.7212 51.8807 13.9116 51.7216 14.1587 51.5824C14.4087 51.4403 14.7468 51.3693 15.1729 51.3693C15.7241 51.3693 16.2099 51.5071 16.6303 51.7827C17.0508 52.0582 17.3789 52.4489 17.6147 52.9545C17.8505 53.4602 17.9684 54.0568 17.9684 54.7443C17.9684 55.4375 17.8505 56.0384 17.6147 56.5469C17.3789 57.0526 17.0522 57.4446 16.6346 57.723C16.217 57.9986 15.7354 58.1364 15.19 58.1364C14.7695 58.1364 14.4329 58.0668 14.18 57.9276C13.9272 57.7855 13.7326 57.625 13.5962 57.446C13.4599 57.2642 13.3548 57.1136 13.2809 56.9943H13.1957V60.4545H12.19ZM13.1786 54.7273C13.1786 55.2216 13.2511 55.6577 13.396 56.0355C13.5408 56.4105 13.7525 56.7045 14.0309 56.9176C14.3093 57.1278 14.6502 57.233 15.0536 57.233C15.4741 57.233 15.8249 57.1222 16.1062 56.9006C16.3903 56.6761 16.6033 56.375 16.7454 55.9972C16.8903 55.6165 16.9627 55.1932 16.9627 54.7273C16.9627 54.267 16.8917 53.8523 16.7496 53.483C16.6104 53.1108 16.3988 52.8168 16.1147 52.6009C15.8335 52.3821 15.4798 52.2727 15.0536 52.2727C14.6445 52.2727 14.3008 52.3764 14.0224 52.5838C13.744 52.7884 13.5337 53.0753 13.3917 53.4446C13.2496 53.8111 13.1786 54.2386 13.1786 54.7273Z" fill="black"/>
</svg>
